<?xml version="1.0" encoding="UTF-8"?>
<svg width="19px" height="19px" viewBox="0 0 19 19" version="1.1" xmlns="http://www.w3.org/2000/svg" xmlns:xlink="http://www.w3.org/1999/xlink">
    <!-- Generator: Sketch 49.1 (51147) - http://www.bohemiancoding.com/sketch -->
    <title>Bag button</title>
    <desc>Created with love in Sketch</desc>
    <defs></defs>
    <!-- Clean code :) -->
    <g id="Symbols" stroke="none" stroke-width="1" fill="none" fill-rule="evenodd">
        <g id="tools-component" transform="translate(-419.000000, -21.000000)" fill="#000000">
            <g id="tools" transform="translate(111.000000, 0.000000)">
                <g id="04-elements/02-menus/tools/items/bag-button" transform="translate(288.000000, 1.000000)">
                    <g id="icons/header/basket" transform="translate(17.000000, 17.000000)">
                        <g id="basket" transform="translate(3.000000, 3.000000)">
                            <path d="M16.262,4.013 L14.108,4.013 C13.848,1.762 11.893,0 9.5,0 C7.107,0 5.153,1.762 4.893,4.013 L2.989,4.013 L2.74,4.013 L0,19 L19,19 L16.262,4.013 Z M9.5,1 C11.346,1 12.879,2.312 13.135,4.013 L5.867,4.013 C6.121,2.312 7.653,1 9.5,1 Z M3.563,5.013 L4.84,5.013 L4.84,9.321 L5.83,9.321 L5.83,5.013 L13.17,5.013 L13.17,9.321 L14.16,9.321 L14.16,5.013 L15.437,5.013 L17.811,18 L1.189,18 L3.563,5.013 Z" id="Shape" fill-rule="nonzero"></path>
                        </g>
                    </g>
                </g>
            </g>
        </g>
    </g>
</svg>