<?xml version="1.0" encoding="UTF-8"?>
<svg width="96px" height="21px" viewBox="0 0 96 21" version="1.1" xmlns="http://www.w3.org/2000/svg" xmlns:xlink="http://www.w3.org/1999/xlink">
    <!-- Generator: Sketch 49.1 (51147) - http://www.bohemiancoding.com/sketch -->
    <title>desigual logo</title>
    <desc>Created with love in Sketch</desc>
    <!-- Clean code :) -->
    <defs></defs>
    <g id="Symbols" stroke="none" stroke-width="1" fill="none" fill-rule="evenodd">
        <g id="component" transform="translate(-20.000000, -23.000000)" fill="#000000">
            <g id="logo" transform="translate(20.000000, 23.000000)">
                <g id="desigual-logo">
                    <path d="M90.3099785,14.0540329 C90.3099785,12.4842339 91.5856563,11.2097566 93.1559736,11.2097566 C94.729572,11.2097566 96,12.4842339 96,14.0540329 C96,15.623832 94.729572,16.8969968 93.1559736,16.8969968 C91.5856563,16.8969968 90.3099785,15.6244883 90.3099785,14.0540329 Z M90.9642227,14.0540329 C90.9642227,15.2655083 91.9478858,16.2440076 93.1553174,16.2440076 C94.3666863,16.2440076 95.3483807,15.2655083 95.3483807,14.0540329 C95.3483807,12.8425576 94.3666863,11.8607769 93.1553174,11.8607769 C91.9478858,11.8607769 90.9642227,12.8425576 90.9642227,14.0540329 Z M92.6355968,13.1076909 L93.3324948,13.1076909 C93.6126977,13.1076909 93.7662515,13.224507 93.7662515,13.5047345 C93.7662515,13.7954624 93.6120415,13.9142473 93.3324948,13.9142473 L92.6355968,13.9142473 L92.6355968,13.1076909 Z M91.9984142,15.4965155 L92.6355968,15.4965155 L92.6355968,14.3690428 L93.2694984,14.3690428 C93.5864492,14.3690428 93.7052237,14.5022657 93.74919,14.8034939 C93.7806882,15.0325323 93.7734699,15.3127598 93.8489343,15.4965155 L94.4808673,15.4965155 C94.371936,15.3337604 94.3739046,14.9944686 94.3634052,14.8120254 C94.3404377,14.5212975 94.251849,14.2187568 93.943429,14.1380356 L93.943429,14.1275352 C94.2616922,14.0015313 94.4001531,13.7462421 94.4001531,13.4082628 C94.4001531,12.9705303 94.0707343,12.6122066 93.554951,12.6122066 L91.9984142,12.6122066 L91.9984142,15.4971718 L91.9984142,15.4965155 Z M28.834648,11.6284571 C29.0216687,7.50248445 26.8443545,4.22047564 22.4844765,4.22047564 C18.9015544,4.22047564 15.9230044,6.89346542 15.9230044,10.6184568 C15.9230044,14.6984906 18.6180705,17.0860027 22.5796273,17.0860027 C25.2976609,17.0860027 27.8988885,15.8692772 28.6246599,13.0565018 L24.8999959,13.0565018 C24.5252984,13.9457483 23.5888827,14.3900434 22.624906,14.3900434 C20.9410639,14.3900434 19.9783997,13.2907903 19.9068725,11.6278009 L28.8353043,11.6278009 L28.834648,11.6284571 Z M19.9062162,9.39779368 C20.1404842,7.92249758 21.0788686,6.91774743 22.4844765,6.91774743 C23.8231506,6.91774743 24.7825338,8.04128254 24.8527486,9.39779368 L19.9062162,9.39779368 Z M45.8712456,0.00328135254 L41.886065,0.00328135254 L41.886065,3.05100159 L45.8712456,3.05100159 L45.8712456,0.00328135254 Z M41.886065,16.7342417 L45.8712456,16.7342417 L45.8712456,4.57420544 L41.886065,4.57420544 L41.886065,16.7342417 Z M59.0355312,4.57420544 L55.2130914,4.57420544 L55.2130914,6.09740929 L55.1678128,6.09740929 C54.462384,4.85640176 53.3651961,4.22113191 51.9090598,4.22113191 C48.4645987,4.22113191 46.5668312,6.94137317 46.5668312,10.1741617 C46.5668312,13.5946436 48.2316431,16.2184131 51.9090598,16.2184131 C53.1991743,16.2184131 54.4190739,15.5634551 55.1448453,14.4379512 L55.1888116,14.4379512 L55.1888116,15.5877371 C55.1888116,17.0860027 55.005072,18.4221694 53.1040234,18.4221694 C52.4963703,18.4221694 52.0048669,18.3539173 51.6491996,18.1662239 C51.2764707,17.9778743 51.0664826,17.6484265 50.9739566,17.110941 L46.9900885,17.110941 C47.457312,20.3680115 50.1300669,21 52.9642501,21 C58.6595212,21 59.0355312,17.2487578 59.0355312,15.2602581 L59.0355312,4.57354917 L59.0355312,4.57420544 Z M55.2616512,10.3382293 C55.2616512,11.8607769 54.5371922,13.1739742 52.8481004,13.1739742 C51.2082245,13.1739742 50.5520117,11.7452733 50.5520117,10.3139473 C50.5520117,8.81371293 51.1137299,7.26819588 52.8690992,7.26819588 C54.6526857,7.26819588 55.2616512,8.79139973 55.2616512,10.3382293 Z M72.0364198,4.57420544 L68.0492706,4.57420544 L68.0492706,11.0896591 C68.0492706,13.2441951 66.740126,13.8079315 65.8719565,13.8079315 C64.6080906,13.8079315 63.9046304,13.2441951 63.9046304,11.6284571 L63.9046304,4.57420544 L59.9187937,4.57420544 L59.9187937,11.8857152 C59.9187937,15.0712522 60.9267366,17.0860027 64.4171326,17.0860027 C65.8260216,17.0860027 67.3733714,16.3142286 68.1207978,15.0712522 L68.1700138,15.0712522 L68.1700138,16.7342417 L72.0364198,16.7342417 L72.0364198,4.57420544 Z M76.862209,8.32151005 C77.047261,7.29247789 77.753346,6.79896247 78.8538149,6.79896247 C79.6734247,6.79896247 80.7758623,7.15269227 80.7758623,8.06425201 C80.7758623,8.81371293 80.4011648,9.0480015 79.7200159,9.18844339 C76.958016,9.75217976 72.6434167,9.44767024 72.6434167,13.408919 C72.6434167,15.9158724 74.4690008,17.086659 76.7939628,17.086659 C78.2428808,17.086659 79.7639821,16.664677 80.7981735,15.5883934 C80.8434522,15.9874059 80.8893871,16.3601675 81.0324415,16.734898 L85.0392771,16.734898 C84.5720535,15.7754305 84.5720535,14.6499266 84.5720535,13.6208944 L84.5720535,8.29985312 C84.5720535,4.85640176 81.7844614,4.22113191 78.8990936,4.22113191 C77.5144845,4.22113191 76.1108453,4.45410794 75.030719,5.06509578 C73.9545299,5.70102191 73.2051349,6.73136661 73.1336077,8.32282259 L76.862209,8.32282259 L76.862209,8.32151005 Z M76.6292534,13.2435389 C76.6292534,12.2827588 77.3766798,11.9080284 78.2658482,11.696053 C79.1340178,11.4617644 80.1688654,11.3915435 80.728615,11.041095 C80.8198286,13.5473921 80.1878956,14.624332 78.2920967,14.624332 C77.4009597,14.624332 76.6292534,14.2272884 76.6292534,13.2435389 Z M85.5819651,16.7342417 L89.5678018,16.7342417 L89.5678018,0.00328135254 L85.5819651,0.00328135254 L85.5819651,16.7342417 Z M41.1071404,12.7290228 C40.9903345,16.1252227 38.0354082,17.0860027 35.1526652,17.0860027 C32.4116642,17.0860027 29.3176207,16.0077502 29.3176207,12.7519922 C29.3176207,11.7452733 29.9528347,9.96349886 32.4123204,9.47195225 C34.2411856,9.07293978 36.9106594,8.86096441 36.9106594,7.71445983 C36.9106594,6.86918341 35.8567815,6.79896247 35.2005687,6.79896247 C34.7070967,6.79896247 34.264153,6.89346542 33.9353904,7.1054408 C33.6079402,7.31544736 33.4189509,7.64292634 33.4189509,8.15744242 L29.7415342,8.15744242 C29.8813075,4.99421857 32.6695558,4.22047564 35.3403421,4.22047564 C37.729613,4.22047564 40.8958399,5.01718804 40.8958399,7.9487484 C40.8958399,11.2274759 37.7525804,11.2990093 35.247816,11.9329667 C34.5443559,12.0976906 33.3014888,12.2834151 33.3014888,13.2199131 C33.3014888,14.182662 34.4045826,14.5081721 35.1762888,14.5081721 C35.7432567,14.5081721 36.2793826,14.3696991 36.6534239,14.088159 C37.0524013,13.7856183 37.3083243,13.3406669 37.3083243,12.7296791 L41.1084528,12.7296791 L41.1071404,12.7290228 Z M4.35987805,3.75124223 L6.42169877,3.75124223 C9.39368669,3.75124223 11.0388123,5.2271946 11.0388123,8.27228976 C11.0388123,11.6245195 9.72244931,12.9147473 6.42169877,12.9829995 L4.35987805,12.9829995 L4.35987805,3.75124223 Z M0,16.7322729 L7.1953737,16.7322729 C12.2783983,16.7322729 15.3940968,13.7797119 15.3940968,8.29525923 C15.3940968,3.11728492 12.3276143,0 7.1953737,0 L0,0 L0,16.7322729 Z" id="Shape" fill-rule="nonzero"></path>
                </g>
            </g>
        </g>
    </g>
</svg>